<svg xmlns="http://www.w3.org/2000/svg" viewBox="0 0 391.74 391.738"><defs><style>.a,.b{fill:#fff;}.b{font-size:130px;font-family:SegoeUI, Segoe UI;}</style></defs><g transform="translate(-1422.629 -71.631)"><path class="a" d="M-2707.132,457.736h0l-63.434-63.434,23-23h0l40.434,40.433v46h0v-46L-2666.7,371.3l23,23-63.434,63.434ZM-2620.7,371.3h0l-23-23,86.435-86.435-86.435-86.435,23-23,109.436,109.435L-2620.7,371.3ZM-2903,261.868l109.436-109.435h0v0l23,23L-2857,261.868l86.435,86.435-23,23ZM-2707.13,112V66h0v46l-40.434,40.434-23-23L-2707.132,66l0,0v0l63.434,63.434-23,23h0Z" transform="translate(4325.63 5.631)"/><text class="b" transform="translate(1540 321)"><tspan x="0" y="0">CC</tspan></text></g></svg>