<svg xmlns="http://www.w3.org/2000/svg" viewBox="0 0 62.525 61.239"><defs><style>.a{fill:none;}</style></defs><g transform="translate(-25.103 -5.929)"><path d="M50.991,35.681V57.115H8.124V14.248H23.495a19.3,19.3,0,0,1,1.47-6.124H8.124A6.142,6.142,0,0,0,2,14.248V57.115a6.142,6.142,0,0,0,6.124,6.124H50.991a6.142,6.142,0,0,0,6.124-6.124V41.805ZM54.971,23.1a13.753,13.753,0,1,0-11.666,6.461,13.577,13.577,0,0,0,7.318-2.143l9.553,9.553,4.348-4.348Zm-11.635.337a7.655,7.655,0,1,1,7.655-7.655A7.658,7.658,0,0,1,43.336,23.434Z" transform="translate(23.103 3.929)"/><g transform="translate(35.785 24.805)"><path class="a" d="M0,0H31.215V31.215H0Z"/><path d="M24.81,9.5H21.155a7.784,7.784,0,0,0-2.367-2.549l2.12-2.12L19.074,3,16.252,5.822A7.889,7.889,0,0,0,14.4,5.6a7.7,7.7,0,0,0-1.834.221L9.736,3,7.9,4.834l2.107,2.12A7.885,7.885,0,0,0,7.655,9.5H4v2.6H6.718A8.633,8.633,0,0,0,6.6,13.4v1.3H4v2.6H6.6v1.3a8.633,8.633,0,0,0,.117,1.3H4v2.6H7.655a7.79,7.79,0,0,0,13.5,0H24.81v-2.6H22.092a8.633,8.633,0,0,0,.117-1.3v-1.3h2.6v-2.6h-2.6V13.4a8.633,8.633,0,0,0-.117-1.3H24.81Zm-7.8,10.4H11.8v-2.6h5.2Zm0-5.2H11.8V12.1h5.2Z" transform="translate(-0.798 0.902)"/></g></g></svg>